<svg xmlns="http://www.w3.org/2000/svg" width="474.21" height="540.45" viewBox="0 0 474.21 540.45">
  <title>backLogo</title>
  <g id="Camada_2" data-name="Camada 2">
    <g id="Camada_1-2" data-name="Camada 1">
      <path d="M173.82,395c-7.76,11.09-38.48-3.34-36.27-25.81,1.17-4.38,17.64,5.64,23.9,10.39,3.38,2.68,15.76,11.05,12.37,15.42ZM311.67,22.49c15.81,8.41,35.71,23.18,46.91,32.58,9.6,7.38,16.42,1.36,11.43-4.66C362,42,354.53,33.58,345.5,26.86c-6.82-6.68-15.81-13.07-27-15.09-19.9-4.37-19.29,3-6.87,10.72ZM371,79.61a385.47,385.47,0,0,0-32.32-30.56c-23.57-18.8-51.52-35.26-80.41-45.37-18-6-46.9-5-19.85,5.74,41.92,18.47,81.63,42,112.4,74.19a156,156,0,0,1,14,14.43c17.64,23.88,26.06,5.41,6.21-18.43ZM39.73,302.93c-17.08-37.23-9.64-55.05,12.38-96v-.66h.66v-.38c10.53-18.8,29.45-34.27,45.3-50.07,5.6-6,3.44-14.71-6.21-12.69-8.65,1.27-22.63,12.69-27.94,17.77-14,16.46-30.4,31.22-40.65,50.4C15.79,226.72,4,258.31,3.41,262c-5,17.44-3.43,46.31-1.88,57.4,3.43,18.81,28,44,16.42-2.35-3.72-16.17,1.88-21.81,4.7-18.47,20.47,22.85,11.77,47.67,13.65,63.47,3.43,23.5,45.35,65.16,26.72,16.5-5.93-14.15,0-28.59-23.29-75.65ZM395.51,160.57c-3.43-6.39-6.82-11.8-10.25-17.44-23.91-36-51.57-72.59-90.67-98.78C269.75,28.55,241.19,16.8,212,8.71,190.9,3,155.85,11.77,201.77,22.86,287.16,44.35,360.46,105.8,384,179.71c20.51,64.45,23.94,7.38,11.52-19.14Zm-94.09,14.11c-29.46-36.63-88.5-72.27-140.63-72.27-44.09,0-88.17,18.2-121.67,46.36C15.17,168,10.85,202.56,41.29,170.3c18.58-20.17,46-34.27,72.64-44,66.71-23.89,162.69,17.82,182.55,78.89,3.71,10.76,6.21,22.52,8.37,34.32-4.05,3.34-8.37,5.73-12.42,9.4-1.27-27.55-10.21-59.14-50.58-88.34-10.3-8-44.08-22.19-52.17-24.87C116.09,111.82,59,209.94,49.33,256.62c-6.87,32.58,10.54,61.12,24.23,90.65C77,354.7,78.22,381.87,94,378.86c11.81-2.68-1.27-31.22,1.6-40.29,7.43-26.52-2.21-69.21-18-94.41-7.48-11,12.37-39,28.23-58.44,8.7-10.39,23.24-21.15,35-29.19,12.14-7.76,44.41-11.43,46-4.37.66,2-35,10.76-46.86,19.46-10.91,8.46-41.31,36.67-43.19,50.45-2.77,18.76,10.92,6.67,9,22.09a312.64,312.64,0,0,0,2.49,76.26c3.72,27.22,2.16,64.18,27,85.33,15.8,13.45,44.41,13.45,64.59,13.07h3.39c2.82,6.12,6.21,12.42,10.21,19.52-15.15,1-32.28,1-39.1.65-18-3-35.71-11.42-49.68-20.17-9.27-5.68-27.29-30.84-36.93-23.46-9.6,8.37,13.69,25.2,19.9,31.88l.61.33c24.18,23.55,53.12,27.55,87.56,29.57a201.56,201.56,0,0,0,28.55-2c45.31,68.17,101.21,85.33,101.21,85.33s60.83-18.15,107.12-92.71c48.75-77.29,41-151.48,41-151.48s-41-10.11-81-28.54c-.66,0-1.89-1-2.54-1.37a228,228,0,0,0-9.93-58.06c-6.21-22.57-15.81-49.74-32.28-67.56-9.59-10.39-13.64-25.53-23.9-37.28S300.8,81,287.77,71.57c-37.26-25.9-70.19-40.34-114.56-44C144,24.18,130.35,37.63,159.85,39.65c27,2.35,52.5,8,73,16.78,19.85,8,60.22,29.9,53.73,35.31-2.82,3-27.67-15.51-57.78-26.28C208,58.08,168.83,45.67,134.39,51.73,111.76,55.07,90,74.86,122.3,70.54c29.5-5.08,69.87-1.32,100.26,8.41,19.29,6,38.49,14.77,54.95,26.19,23.29,16.46,53.4,35.26,65.83,59.43,14.58,30.56,25.5,60.51,28.27,91.35-5-2.64-10.26-5.69-14-9v-3c-6.21-47.39-25.13-100.75-78.24-126.66-35.76-16.78-76.69-38.6-117.95-40-28.94-1-51.57.33-77.07,12.41-25.4,11.76-39,41.33,0,18.86C118.26,89.34,163.23,87,204,102.41c22.63,8.42,51.47,17.16,70.76,30.28,36.32,24.87,54.95,56.79,61.77,94.69v3.71a120.73,120.73,0,0,0-10.86-9s-.95,1-3.39,3.29c-3.15-18.43-9.65-37-20.84-50.68Zm-26.07,172,.66.61a19.06,19.06,0,0,1,13.93,7.43l4,4.7,10.92,12.08,10.87,13.12,31.66-38.32L362,328.84a26.21,26.21,0,0,1,13.64-7.38,24.46,24.46,0,0,1,15.86,2.63,3.86,3.86,0,0,0,2.16,1,23.14,23.14,0,0,1,8.09,10.39v.38c1.23,3.71.57,8.37-2.16,12.74-.61.38-1.27,1.36-1.88,1.36l-72.36,87c-.62,1.37-1.23,1.37-1.84,2-4.37,3-10.87,2.73-14.58-.65-.62-.33-1.27-1.37-1.89-1.7l-9.64-11.42-10.82-11.76-8.38-10.06L267.92,392l-13.08-15.42-.57-.38c-.33-.7-.33-1.36-1-2l-.62-.38h-.61v-1l-.61-.65v-1h-.33v-.7c-.61-2.35-1.22-5-.61-7v-1.36c.94-4.05,3.43-7.38,6.82-10.44a1.24,1.24,0,0,1,.94-.33c.61-1,1.23-1,1.23-1.32h1.27v-.7h.28V349h1.27v-.38h1.22v-1h1.55a36.65,36.65,0,0,1,10.26-1ZM180,340.92c-.94-1.32-3.43-2.68-4.33-4.33C151.14,311,149,272.75,156.46,242.85c4.33-17.49,13-30.89,27.62-42.69,5.6-4.66,17.69-10.68,26.67-8,10.92,3.38,19.29,10.76,22.07,3.38,3.43-11.09-13-19.18-24.84-20.17-15.81-1.36-35.1,11.76-44.75,20.17-23.85,22.48-28.84,51-28.55,82.94,0,27.55,11.52,58.15,37.59,77.95,4,3,7.76,4.37,11.81,6,1.88,7.75,4,14.81,6.21,22.47-15.25-13.4-29.5-22.8-47.52-34.89-17-11.75-16.47-33.28-18-50.07-1.84-41.28-5.22-97,36.7-124.59,11.76-7.38,21.36-10.76,37.49-10.39,4.38,0,18,2.35,23.62,4.38,8.71,4.37,22.07,16.07,24.51,18.1,9.65,11.47,15.25,19.84,20.85,31.54,5.88,9.78,8.7,24.92,8.7,39.68-2.82,1.32-6.21,3.67-9.64,5.36,0-11.42-4.05-24.87-6.83-36.29-1.27-5.64-14.91-33.19-25.45-19.14-3.15,5.08,18,39.31,13.36,62.86v1.65c-3.76,1-7.2,3-11.19,4.37-9-22.52,4-74.89-32.89-73.58-28.28,1.32-22.07,53.79-4,86.65-6.21,1.69-11.19,2.73-15.24,4.09a93.38,93.38,0,0,1-6.21-19.89c-1.88-7,1.27-26.84-5.27-33.89-8.38-10.07-14.59,25.52-11.15,44a76.78,76.78,0,0,0,16.42,34.6c0,6.4,1.27,13.78,1.55,21.49ZM66.41,273.74c11.2-10.39,15.24,24.16,16.14,28.53,2.49,4.75-.9,15.8-2.78,15.8-2.77,0-7.15-8.37-8.37-12.74-1.89-5.41-7.48-30.61-5-31.59Zm156.76,8.74-8.37,3c-2.78-5.36-6.21-11.43-8.66-17.44-7.76-22.19-7.2-48.05,0-49.09,13-2.3,8.05,23.89,8.05,35.59.61,11.15,4.94,20.88,9,27.93Z" style="fill: #027b96;fill-rule: evenodd"/>
    </g>
  </g>
</svg>
