<?xml version="1.0" standalone="no"?>
<!DOCTYPE svg PUBLIC "-//W3C//DTD SVG 20010904//EN"
 "http://www.w3.org/TR/2001/REC-SVG-20010904/DTD/svg10.dtd">
<svg version="1.0" xmlns="http://www.w3.org/2000/svg"
 width="427.000000pt" height="280.000000pt" viewBox="0 0 427.000000 280.000000"
 preserveAspectRatio="xMidYMid meet">

<g transform="translate(0.000000,280.000000) scale(0.100000,-0.100000)"
fill="#000000" stroke="none">
<path d="M2020 2784 c-320 -57 -547 -173 -771 -394 -115 -114 -203 -226 -282
-361 -46 -78 -55 -88 -91 -99 -61 -18 -217 -93 -283 -137 -80 -52 -198 -166
-245 -236 -52 -76 -103 -186 -125 -267 -13 -48 -18 -102 -18 -205 1 -165 14
-221 85 -370 149 -308 457 -519 865 -591 199 -35 640 -15 713 32 54 35 64 130
19 172 -41 39 -69 43 -179 25 -143 -22 -405 -22 -523 1 -455 87 -755 380 -755
737 0 286 211 528 550 630 89 27 109 45 170 160 88 164 278 385 410 476 200
137 366 193 595 201 219 7 380 -29 581 -129 245 -122 463 -345 555 -568 17
-42 36 -82 42 -89 5 -7 55 -36 111 -64 159 -82 272 -162 376 -267 138 -140
196 -251 207 -396 11 -147 -39 -267 -162 -390 -113 -112 -241 -183 -435 -238
-180 -52 -265 -61 -553 -62 l-269 0 -29 -33 c-51 -56 -33 -143 35 -176 49 -23
346 -33 516 -17 516 48 898 256 1056 576 119 241 93 506 -75 754 -107 156
-289 309 -518 432 -79 43 -82 46 -115 114 -175 368 -562 662 -999 760 -71 16
-399 30 -459 19z"/>
</g>
</svg>
