<?xml version="1.0" encoding="UTF-8"?>
<!DOCTYPE svg PUBLIC "-//W3C//DTD SVG 1.1//EN" "http://www.w3.org/Graphics/SVG/1.1/DTD/svg11.dtd">
<!-- Creator: CorelDRAW 2021 (64-Bit) -->
<svg xmlns="http://www.w3.org/2000/svg" xml:space="preserve" width="228.128mm" height="197.413mm" version="1.1" style="shape-rendering:geometricPrecision; text-rendering:geometricPrecision; image-rendering:optimizeQuality; fill-rule:evenodd; clip-rule:evenodd"
viewBox="0 0 86287.94 74670.36"
 xmlns:xlink="http://www.w3.org/1999/xlink"
 xmlns:xodm="http://www.corel.com/coreldraw/odm/2003">
 <defs>
  <style type="text/css">
   <![CDATA[
    .str0 {stroke:#714732;stroke-width:75.65;stroke-linecap:round;stroke-linejoin:round;stroke-miterlimit:22.9256}
    .str1 {stroke:#905841;stroke-width:75.65;stroke-linecap:round;stroke-linejoin:round;stroke-miterlimit:22.9256}
    .fil6 {fill:black}
    .fil9 {fill:#312F32}
    .fil2 {fill:#714732}
    .fil10 {fill:#7FD8E0}
    .fil11 {fill:#8FC74B}
    .fil1 {fill:#905841}
    .fil7 {fill:#A4A5A5}
    .fil0 {fill:#B77050}
    .fil3 {fill:#C52313}
    .fil4 {fill:#EAEAEA}
    .fil8 {fill:#FBC800}
    .fil5 {fill:white}
    .fil12 {fill:black;fill-opacity:0.211765}
   ]]>
  </style>
 </defs>
 <g id="Layer_x0020_1">
  <metadata id="CorelCorpID_0Corel-Layer"/>
  <g id="_2397962186688">
   <rect class="fil0 str0" x="37.81" y="25263.6" width="43253.87" height="25173.41"/>
   <rect class="fil1 str1" x="1813.05" y="27098.58" width="39588.88" height="21723.6" rx="861.37" ry="812.14"/>
   <rect class="fil2 str0" x="1813.08" y="45185.43" width="39608.46" height="3617.11"/>
   <rect class="fil2 str0" x="2634.02" y="28829.69" width="19140.75" height="19003.22" rx="39.94" ry="434.2"/>
   <rect class="fil2 str0" x="25972.68" y="28829.69" width="13680.27" height="19003.22" rx="28.55" ry="434.2"/>
   <g>
    <rect class="fil3" x="2525.75" y="28899.7" width="5853.45" height="19224.61" rx="238.29" ry="238.29"/>
    <rect class="fil4" x="3438.98" y="29627.11" width="4115.11" height="8995.45"/>
    <circle class="fil5" cx="5452.47" cy="44627.5" r="1455.71"/>
    <circle class="fil6" cx="5452.47" cy="44627.5" r="1065.74"/>
    <rect class="fil7" x="3442.46" y="32015.7" width="4111.63" height="388.76"/>
    <rect class="fil7" x="3442.46" y="30665.41" width="4111.63" height="388.76"/>
    <rect class="fil7" x="3440.72" y="37203.74" width="4111.63" height="531.81"/>
   </g>
   <g>
    <rect class="fil8" x="8561.5" y="28899.7" width="5853.45" height="19224.61" rx="238.29" ry="238.29"/>
    <rect class="fil4" x="9474.74" y="29627.11" width="4115.11" height="8995.45"/>
    <circle class="fil5" cx="11488.23" cy="44627.5" r="1455.71"/>
    <circle class="fil6" cx="11488.23" cy="44627.5" r="1065.74"/>
    <rect class="fil7" x="9478.22" y="32015.7" width="4111.63" height="388.76"/>
    <rect class="fil7" x="9478.22" y="30665.41" width="4111.63" height="388.76"/>
    <rect class="fil7" x="9476.48" y="37203.74" width="4111.63" height="531.81"/>
   </g>
   <g>
    <rect class="fil9" x="26679.41" y="28937.53" width="5853.45" height="19224.61" rx="238.29" ry="238.29"/>
    <rect class="fil4" x="27592.64" y="29664.93" width="4115.11" height="8995.45"/>
    <circle class="fil5" cx="29606.13" cy="44665.33" r="1455.71"/>
    <circle class="fil6" cx="29606.13" cy="44665.33" r="1065.74"/>
    <rect class="fil7" x="27596.12" y="32053.52" width="4111.63" height="388.76"/>
    <rect class="fil7" x="27596.12" y="30703.23" width="4111.63" height="388.76"/>
    <rect class="fil7" x="27594.38" y="37241.56" width="4111.63" height="531.81"/>
   </g>
   <g>
    <rect class="fil10" x="14597.26" y="28899.7" width="5853.45" height="19224.61" rx="238.29" ry="238.29"/>
    <rect class="fil4" x="15510.5" y="29627.11" width="4115.11" height="8995.45"/>
    <circle class="fil5" cx="17523.99" cy="44627.5" r="1455.71"/>
    <circle class="fil6" cx="17523.99" cy="44627.5" r="1065.74"/>
    <rect class="fil7" x="15513.98" y="32015.7" width="4111.63" height="388.76"/>
    <rect class="fil7" x="15513.98" y="30665.41" width="4111.63" height="388.76"/>
    <rect class="fil7" x="15512.24" y="37203.74" width="4111.63" height="531.81"/>
   </g>
   <rect class="fil11" x="32715.17" y="28937.53" width="5853.45" height="19224.61" rx="238.29" ry="238.29"/>
   <rect class="fil4" x="33628.4" y="29664.93" width="4115.11" height="8995.45"/>
   <circle class="fil5" cx="35641.89" cy="44665.33" r="1455.71"/>
   <circle class="fil6" cx="35641.89" cy="44665.33" r="1065.74"/>
   <rect class="fil7" x="33631.88" y="32053.52" width="4111.63" height="388.76"/>
   <rect class="fil7" x="33631.88" y="30703.23" width="4111.63" height="388.76"/>
   <rect class="fil7" x="33630.14" y="37241.56" width="4111.63" height="531.81"/>
   <g>
    <path class="fil12" d="M3438.54 39230.64l155.27 0c30.18,0 54.85,24.66 54.85,54.85l0 8766.95c0,30.18 -24.66,54.85 -54.85,54.85l-155.27 0c-30.18,0 -54.85,-24.66 -54.85,-54.85l0 -8766.95c0,-30.18 24.66,-54.85 54.85,-54.85z"/>
    <path class="fil12" d="M7311.16 39230.64l155.27 0c30.18,0 54.85,24.66 54.85,54.85l0 8766.95c0,30.18 -24.66,54.85 -54.85,54.85l-155.27 0c-30.18,0 -54.85,-24.66 -54.85,-54.85l0 -8766.95c0,-30.18 24.66,-54.85 54.85,-54.85z"/>
   </g>
   <g>
    <path class="fil12" d="M9474.3 39230.64l155.27 0c30.18,0 54.85,24.66 54.85,54.85l0 8766.95c0,30.18 -24.66,54.85 -54.85,54.85l-155.27 0c-30.18,0 -54.85,-24.66 -54.85,-54.85l0 -8766.95c0,-30.18 24.66,-54.85 54.85,-54.85z"/>
    <path class="fil12" d="M13346.92 39230.64l155.27 0c30.18,0 54.85,24.66 54.85,54.85l0 8766.95c0,30.18 -24.66,54.85 -54.85,54.85l-155.27 0c-30.18,0 -54.85,-24.66 -54.85,-54.85l0 -8766.95c0,-30.18 24.66,-54.85 54.85,-54.85z"/>
   </g>
   <g>
    <path class="fil12" d="M15510.06 39230.64l155.27 0c30.18,0 54.85,24.66 54.85,54.85l0 8766.95c0,30.18 -24.66,54.85 -54.85,54.85l-155.27 0c-30.18,0 -54.85,-24.66 -54.85,-54.85l0 -8766.95c0,-30.18 24.66,-54.85 54.85,-54.85z"/>
    <path class="fil12" d="M19382.68 39230.64l155.27 0c30.18,0 54.85,24.66 54.85,54.85l0 8766.95c0,30.18 -24.66,54.85 -54.85,54.85l-155.27 0c-30.18,0 -54.85,-24.66 -54.85,-54.85l0 -8766.95c0,-30.18 24.66,-54.85 54.85,-54.85z"/>
   </g>
   <g>
    <path class="fil12" d="M27592.21 39230.64l155.27 0c30.18,0 54.85,24.66 54.85,54.85l0 8766.95c0,30.18 -24.66,54.85 -54.85,54.85l-155.27 0c-30.18,0 -54.85,-24.66 -54.85,-54.85l0 -8766.95c0,-30.18 24.66,-54.85 54.85,-54.85z"/>
    <path class="fil12" d="M31464.83 39230.64l155.27 0c30.18,0 54.85,24.66 54.85,54.85l0 8766.95c0,30.18 -24.66,54.85 -54.85,54.85l-155.27 0c-30.18,0 -54.85,-24.66 -54.85,-54.85l0 -8766.95c0,-30.18 24.66,-54.85 54.85,-54.85z"/>
   </g>
   <g>
    <path class="fil12" d="M33627.97 39230.64l155.27 0c30.18,0 54.85,24.66 54.85,54.85l0 8766.95c0,30.18 -24.66,54.85 -54.85,54.85l-155.27 0c-30.18,0 -54.85,-24.66 -54.85,-54.85l0 -8766.95c0,-30.18 24.66,-54.85 54.85,-54.85z"/>
    <path class="fil12" d="M37500.58 39230.64l155.27 0c30.18,0 54.85,24.66 54.85,54.85l0 8766.95c0,30.18 -24.66,54.85 -54.85,54.85l-155.27 0c-30.18,0 -54.85,-24.66 -54.85,-54.85l0 -8766.95c0,-30.18 24.66,-54.85 54.85,-54.85z"/>
   </g>
   <rect class="fil0 str0" x="42996.23" y="25283.8" width="43253.87" height="25173.41"/>
   <rect class="fil1 str1" x="44771.47" y="27118.78" width="39588.88" height="21723.6" rx="861.37" ry="812.14"/>
   <rect class="fil2 str0" x="44771.5" y="45205.63" width="39608.46" height="3617.11"/>
   <rect class="fil2 str0" x="50201.12" y="28849.88" width="31325.93" height="19003.22" rx="65.36" ry="434.2"/>
   <g>
    <rect class="fil3" x="63602.07" y="28957.73" width="5853.45" height="19224.61" rx="238.29" ry="238.29"/>
    <rect class="fil4" x="64515.31" y="29685.13" width="4115.11" height="8995.45"/>
    <circle class="fil5" cx="66528.8" cy="44685.52" r="1455.71"/>
    <circle class="fil6" cx="66528.8" cy="44685.52" r="1065.74"/>
    <rect class="fil7" x="64518.79" y="32073.72" width="4111.63" height="388.76"/>
    <rect class="fil7" x="64518.79" y="30723.43" width="4111.63" height="388.76"/>
    <rect class="fil7" x="64517.05" y="37261.76" width="4111.63" height="531.81"/>
   </g>
   <g>
    <rect class="fil8" x="51519.93" y="28919.9" width="5853.45" height="19224.61" rx="238.29" ry="238.29"/>
    <rect class="fil4" x="52433.16" y="29647.3" width="4115.11" height="8995.45"/>
    <circle class="fil5" cx="54446.65" cy="44647.7" r="1455.71"/>
    <circle class="fil6" cx="54446.65" cy="44647.7" r="1065.74"/>
    <rect class="fil7" x="52436.64" y="32035.9" width="4111.63" height="388.76"/>
    <rect class="fil7" x="52436.64" y="30685.6" width="4111.63" height="388.76"/>
    <rect class="fil7" x="52434.9" y="37223.94" width="4111.63" height="531.81"/>
   </g>
   <g>
    <rect class="fil9" x="69637.83" y="28957.73" width="5853.45" height="19224.61" rx="238.29" ry="238.29"/>
    <rect class="fil4" x="70551.07" y="29685.13" width="4115.11" height="8995.45"/>
    <circle class="fil5" cx="72564.56" cy="44685.52" r="1455.71"/>
    <circle class="fil6" cx="72564.56" cy="44685.52" r="1065.74"/>
    <rect class="fil7" x="70554.55" y="32073.72" width="4111.63" height="388.76"/>
    <rect class="fil7" x="70554.55" y="30723.43" width="4111.63" height="388.76"/>
    <rect class="fil7" x="70552.81" y="37261.76" width="4111.63" height="531.81"/>
   </g>
   <g>
    <rect class="fil10" x="57555.69" y="28919.9" width="5853.45" height="19224.61" rx="238.29" ry="238.29"/>
    <rect class="fil4" x="58468.92" y="29647.3" width="4115.11" height="8995.45"/>
    <circle class="fil5" cx="60482.41" cy="44647.7" r="1455.71"/>
    <circle class="fil6" cx="60482.41" cy="44647.7" r="1065.74"/>
    <rect class="fil7" x="58472.4" y="32035.9" width="4111.63" height="388.76"/>
    <rect class="fil7" x="58472.4" y="30685.6" width="4111.63" height="388.76"/>
    <rect class="fil7" x="58470.66" y="37223.94" width="4111.63" height="531.81"/>
   </g>
   <rect class="fil11" x="75673.59" y="28957.73" width="5853.45" height="19224.61" rx="238.29" ry="238.29"/>
   <rect class="fil4" x="76586.83" y="29685.13" width="4115.11" height="8995.45"/>
   <circle class="fil5" cx="78600.31" cy="44685.52" r="1455.71"/>
   <circle class="fil6" cx="78600.31" cy="44685.52" r="1065.74"/>
   <rect class="fil7" x="76590.31" y="32073.72" width="4111.63" height="388.76"/>
   <rect class="fil7" x="76590.31" y="30723.43" width="4111.63" height="388.76"/>
   <rect class="fil7" x="76588.57" y="37261.76" width="4111.63" height="531.81"/>
   <g>
    <path class="fil12" d="M52432.73 39250.83l155.27 0c30.18,0 54.85,24.66 54.85,54.85l0 8766.95c0,30.18 -24.66,54.85 -54.85,54.85l-155.27 0c-30.18,0 -54.85,-24.66 -54.85,-54.85l0 -8766.95c0,-30.18 24.66,-54.85 54.85,-54.85z"/>
    <path class="fil12" d="M56305.34 39250.83l155.27 0c30.18,0 54.85,24.66 54.85,54.85l0 8766.95c0,30.18 -24.66,54.85 -54.85,54.85l-155.27 0c-30.18,0 -54.85,-24.66 -54.85,-54.85l0 -8766.95c0,-30.18 24.66,-54.85 54.85,-54.85z"/>
   </g>
   <g>
    <path class="fil12" d="M58468.48 39250.83l155.27 0c30.18,0 54.85,24.66 54.85,54.85l0 8766.95c0,30.18 -24.66,54.85 -54.85,54.85l-155.27 0c-30.18,0 -54.85,-24.66 -54.85,-54.85l0 -8766.95c0,-30.18 24.66,-54.85 54.85,-54.85z"/>
    <path class="fil12" d="M62341.1 39250.83l155.27 0c30.18,0 54.85,24.66 54.85,54.85l0 8766.95c0,30.18 -24.66,54.85 -54.85,54.85l-155.27 0c-30.18,0 -54.85,-24.66 -54.85,-54.85l0 -8766.95c0,-30.18 24.66,-54.85 54.85,-54.85z"/>
   </g>
   <g>
    <path class="fil12" d="M64514.87 39250.83l155.27 0c30.18,0 54.85,24.66 54.85,54.85l0 8766.95c0,30.18 -24.66,54.85 -54.85,54.85l-155.27 0c-30.18,0 -54.85,-24.66 -54.85,-54.85l0 -8766.95c0,-30.18 24.66,-54.85 54.85,-54.85z"/>
    <path class="fil12" d="M68387.49 39250.83l155.27 0c30.18,0 54.85,24.66 54.85,54.85l0 8766.95c0,30.18 -24.66,54.85 -54.85,54.85l-155.27 0c-30.18,0 -54.85,-24.66 -54.85,-54.85l0 -8766.95c0,-30.18 24.66,-54.85 54.85,-54.85z"/>
   </g>
   <g>
    <path class="fil12" d="M70550.63 39250.83l155.27 0c30.18,0 54.85,24.66 54.85,54.85l0 8766.95c0,30.18 -24.66,54.85 -54.85,54.85l-155.27 0c-30.18,0 -54.85,-24.66 -54.85,-54.85l0 -8766.95c0,-30.18 24.66,-54.85 54.85,-54.85z"/>
    <path class="fil12" d="M74423.25 39250.83l155.27 0c30.18,0 54.85,24.66 54.85,54.85l0 8766.95c0,30.18 -24.66,54.85 -54.85,54.85l-155.27 0c-30.18,0 -54.85,-24.66 -54.85,-54.85l0 -8766.95c0,-30.18 24.66,-54.85 54.85,-54.85z"/>
   </g>
   <g>
    <path class="fil12" d="M76586.39 39250.83l155.27 0c30.18,0 54.85,24.66 54.85,54.85l0 8766.95c0,30.18 -24.66,54.85 -54.85,54.85l-155.27 0c-30.18,0 -54.85,-24.66 -54.85,-54.85l0 -8766.95c0,-30.18 24.66,-54.85 54.85,-54.85z"/>
    <path class="fil12" d="M80459.01 39250.83l155.27 0c30.18,0 54.85,24.66 54.85,54.85l0 8766.95c0,30.18 -24.66,54.85 -54.85,54.85l-155.27 0c-30.18,0 -54.85,-24.66 -54.85,-54.85l0 -8766.95c0,-30.18 24.66,-54.85 54.85,-54.85z"/>
   </g>
   <rect class="fil0 str0" x="37.81" y="37.81" width="43253.87" height="25173.41"/>
   <rect class="fil1 str1" x="1813.05" y="1872.79" width="39588.88" height="21723.6" rx="861.37" ry="812.14"/>
   <rect class="fil2 str0" x="1813.08" y="19959.63" width="39608.46" height="3617.11"/>
   <rect class="fil2 str0" x="18598.84" y="3603.89" width="20481.82" height="19003.22" rx="42.74" ry="434.2"/>
   <g>
    <rect class="fil3" x="20643.65" y="3711.73" width="5853.45" height="19224.61" rx="238.29" ry="238.29"/>
    <rect class="fil4" x="21556.88" y="4439.13" width="4115.11" height="8995.45"/>
    <circle class="fil5" cx="23570.37" cy="19439.53" r="1455.71"/>
    <circle class="fil6" cx="23570.37" cy="19439.53" r="1065.74"/>
    <rect class="fil7" x="21560.36" y="6827.73" width="4111.63" height="388.76"/>
    <rect class="fil7" x="21560.36" y="5477.43" width="4111.63" height="388.76"/>
    <rect class="fil7" x="21558.62" y="12015.76" width="4111.63" height="531.81"/>
   </g>
   <g>
    <rect class="fil9" x="26679.41" y="3711.73" width="5853.45" height="19224.61" rx="238.29" ry="238.29"/>
    <rect class="fil4" x="27592.64" y="4439.13" width="4115.11" height="8995.45"/>
    <circle class="fil5" cx="29606.13" cy="19439.53" r="1455.71"/>
    <circle class="fil6" cx="29606.13" cy="19439.53" r="1065.74"/>
    <rect class="fil7" x="27596.12" y="6827.73" width="4111.63" height="388.76"/>
    <rect class="fil7" x="27596.12" y="5477.43" width="4111.63" height="388.76"/>
    <rect class="fil7" x="27594.38" y="12015.76" width="4111.63" height="531.81"/>
   </g>
   <rect class="fil11" x="32715.17" y="3711.73" width="5853.45" height="19224.61" rx="238.29" ry="238.29"/>
   <rect class="fil4" x="33628.4" y="4439.13" width="4115.11" height="8995.45"/>
   <circle class="fil5" cx="35641.89" cy="19439.53" r="1455.71"/>
   <circle class="fil6" cx="35641.89" cy="19439.53" r="1065.74"/>
   <rect class="fil7" x="33631.88" y="6827.73" width="4111.63" height="388.76"/>
   <rect class="fil7" x="33631.88" y="5477.43" width="4111.63" height="388.76"/>
   <rect class="fil7" x="33630.14" y="12015.76" width="4111.63" height="531.81"/>
   <g>
    <path class="fil12" d="M21556.45 14004.84l155.27 0c30.18,0 54.85,24.66 54.85,54.85l0 8766.95c0,30.18 -24.66,54.85 -54.85,54.85l-155.27 0c-30.18,0 -54.85,-24.66 -54.85,-54.85l0 -8766.95c0,-30.18 24.66,-54.85 54.85,-54.85z"/>
    <path class="fil12" d="M25429.07 14004.84l155.27 0c30.18,0 54.85,24.66 54.85,54.85l0 8766.95c0,30.18 -24.66,54.85 -54.85,54.85l-155.27 0c-30.18,0 -54.85,-24.66 -54.85,-54.85l0 -8766.95c0,-30.18 24.66,-54.85 54.85,-54.85z"/>
   </g>
   <g>
    <path class="fil12" d="M27592.21 14004.84l155.27 0c30.18,0 54.85,24.66 54.85,54.85l0 8766.95c0,30.18 -24.66,54.85 -54.85,54.85l-155.27 0c-30.18,0 -54.85,-24.66 -54.85,-54.85l0 -8766.95c0,-30.18 24.66,-54.85 54.85,-54.85z"/>
    <path class="fil12" d="M31464.83 14004.84l155.27 0c30.18,0 54.85,24.66 54.85,54.85l0 8766.95c0,30.18 -24.66,54.85 -54.85,54.85l-155.27 0c-30.18,0 -54.85,-24.66 -54.85,-54.85l0 -8766.95c0,-30.18 24.66,-54.85 54.85,-54.85z"/>
   </g>
   <g>
    <path class="fil12" d="M33627.97 14004.84l155.27 0c30.18,0 54.85,24.66 54.85,54.85l0 8766.95c0,30.18 -24.66,54.85 -54.85,54.85l-155.27 0c-30.18,0 -54.85,-24.66 -54.85,-54.85l0 -8766.95c0,-30.18 24.66,-54.85 54.85,-54.85z"/>
    <path class="fil12" d="M37500.58 14004.84l155.27 0c30.18,0 54.85,24.66 54.85,54.85l0 8766.95c0,30.18 -24.66,54.85 -54.85,54.85l-155.27 0c-30.18,0 -54.85,-24.66 -54.85,-54.85l0 -8766.95c0,-30.18 24.66,-54.85 54.85,-54.85z"/>
   </g>
   <rect class="fil0 str0" x="42996.23" y="58" width="43253.87" height="25173.41"/>
   <rect class="fil1 str1" x="44771.47" y="1892.98" width="39588.88" height="21723.6" rx="861.37" ry="812.14"/>
   <rect class="fil2 str0" x="44771.5" y="19979.83" width="39608.46" height="3617.11"/>
   <rect class="fil2 str0" x="45592.44" y="3624.09" width="24939.16" height="19003.22" rx="52.04" ry="434.2"/>
   <g>
    <rect class="fil3" x="45484.17" y="3694.1" width="5853.45" height="19224.61" rx="238.29" ry="238.29"/>
    <rect class="fil4" x="46397.4" y="4421.51" width="4115.11" height="8995.45"/>
    <circle class="fil5" cx="48410.89" cy="19421.9" r="1455.71"/>
    <circle class="fil6" cx="48410.89" cy="19421.9" r="1065.74"/>
    <rect class="fil7" x="46400.88" y="6810.1" width="4111.63" height="388.76"/>
    <rect class="fil7" x="46400.88" y="5459.81" width="4111.63" height="388.76"/>
    <rect class="fil7" x="46399.14" y="11998.14" width="4111.63" height="531.81"/>
   </g>
   <g>
    <rect class="fil3" x="63602.07" y="3731.93" width="5853.45" height="19224.61" rx="238.29" ry="238.29"/>
    <rect class="fil4" x="64515.31" y="4459.33" width="4115.11" height="8995.45"/>
    <circle class="fil5" cx="66528.8" cy="19459.73" r="1455.71"/>
    <circle class="fil6" cx="66528.8" cy="19459.73" r="1065.74"/>
    <rect class="fil7" x="64518.79" y="6847.93" width="4111.63" height="388.76"/>
    <rect class="fil7" x="64518.79" y="5497.63" width="4111.63" height="388.76"/>
    <rect class="fil7" x="64517.05" y="12035.96" width="4111.63" height="531.81"/>
   </g>
   <g>
    <rect class="fil8" x="51519.93" y="3694.1" width="5853.45" height="19224.61" rx="238.29" ry="238.29"/>
    <rect class="fil4" x="52433.16" y="4421.51" width="4115.11" height="8995.45"/>
    <circle class="fil5" cx="54446.65" cy="19421.9" r="1455.71"/>
    <circle class="fil6" cx="54446.65" cy="19421.9" r="1065.74"/>
    <rect class="fil7" x="52436.64" y="6810.1" width="4111.63" height="388.76"/>
    <rect class="fil7" x="52436.64" y="5459.81" width="4111.63" height="388.76"/>
    <rect class="fil7" x="52434.9" y="11998.14" width="4111.63" height="531.81"/>
   </g>
   <g>
    <rect class="fil10" x="57555.69" y="3694.1" width="5853.45" height="19224.61" rx="238.29" ry="238.29"/>
    <rect class="fil4" x="58468.92" y="4421.51" width="4115.11" height="8995.45"/>
    <circle class="fil5" cx="60482.41" cy="19421.9" r="1455.71"/>
    <circle class="fil6" cx="60482.41" cy="19421.9" r="1065.74"/>
    <rect class="fil7" x="58472.4" y="6810.1" width="4111.63" height="388.76"/>
    <rect class="fil7" x="58472.4" y="5459.81" width="4111.63" height="388.76"/>
    <rect class="fil7" x="58470.66" y="11998.14" width="4111.63" height="531.81"/>
   </g>
   <g>
    <path class="fil12" d="M46396.97 14025.04l155.27 0c30.18,0 54.85,24.66 54.85,54.85l0 8766.95c0,30.18 -24.66,54.85 -54.85,54.85l-155.27 0c-30.18,0 -54.85,-24.66 -54.85,-54.85l0 -8766.95c0,-30.18 24.66,-54.85 54.85,-54.85z"/>
    <path class="fil12" d="M50269.58 14025.04l155.27 0c30.18,0 54.85,24.66 54.85,54.85l0 8766.95c0,30.18 -24.66,54.85 -54.85,54.85l-155.27 0c-30.18,0 -54.85,-24.66 -54.85,-54.85l0 -8766.95c0,-30.18 24.66,-54.85 54.85,-54.85z"/>
   </g>
   <g>
    <path class="fil12" d="M52432.73 14025.04l155.27 0c30.18,0 54.85,24.66 54.85,54.85l0 8766.95c0,30.18 -24.66,54.85 -54.85,54.85l-155.27 0c-30.18,0 -54.85,-24.66 -54.85,-54.85l0 -8766.95c0,-30.18 24.66,-54.85 54.85,-54.85z"/>
    <path class="fil12" d="M56305.34 14025.04l155.27 0c30.18,0 54.85,24.66 54.85,54.85l0 8766.95c0,30.18 -24.66,54.85 -54.85,54.85l-155.27 0c-30.18,0 -54.85,-24.66 -54.85,-54.85l0 -8766.95c0,-30.18 24.66,-54.85 54.85,-54.85z"/>
   </g>
   <g>
    <path class="fil12" d="M58468.48 14025.04l155.27 0c30.18,0 54.85,24.66 54.85,54.85l0 8766.95c0,30.18 -24.66,54.85 -54.85,54.85l-155.27 0c-30.18,0 -54.85,-24.66 -54.85,-54.85l0 -8766.95c0,-30.18 24.66,-54.85 54.85,-54.85z"/>
    <path class="fil12" d="M62341.1 14025.04l155.27 0c30.18,0 54.85,24.66 54.85,54.85l0 8766.95c0,30.18 -24.66,54.85 -54.85,54.85l-155.27 0c-30.18,0 -54.85,-24.66 -54.85,-54.85l0 -8766.95c0,-30.18 24.66,-54.85 54.85,-54.85z"/>
   </g>
   <g>
    <path class="fil12" d="M64514.87 14025.04l155.27 0c30.18,0 54.85,24.66 54.85,54.85l0 8766.95c0,30.18 -24.66,54.85 -54.85,54.85l-155.27 0c-30.18,0 -54.85,-24.66 -54.85,-54.85l0 -8766.95c0,-30.18 24.66,-54.85 54.85,-54.85z"/>
    <path class="fil12" d="M68387.49 14025.04l155.27 0c30.18,0 54.85,24.66 54.85,54.85l0 8766.95c0,30.18 -24.66,54.85 -54.85,54.85l-155.27 0c-30.18,0 -54.85,-24.66 -54.85,-54.85l0 -8766.95c0,-30.18 24.66,-54.85 54.85,-54.85z"/>
   </g>
   <rect class="fil0 str0" x="37.81" y="49438.9" width="43253.87" height="25173.41"/>
   <rect class="fil1 str1" x="1813.05" y="51273.88" width="39588.88" height="21723.6" rx="861.37" ry="812.14"/>
   <rect class="fil2 str0" x="1813.08" y="69360.73" width="39608.46" height="3617.11"/>
   <g>
    <rect class="fil3" x="2525.75" y="53075" width="5853.45" height="19224.61" rx="238.29" ry="238.29"/>
    <rect class="fil4" x="3438.98" y="53802.41" width="4115.11" height="8995.45"/>
    <circle class="fil5" cx="5452.47" cy="68802.8" r="1455.71"/>
    <circle class="fil6" cx="5452.47" cy="68802.8" r="1065.74"/>
    <rect class="fil7" x="3442.46" y="56191" width="4111.63" height="388.76"/>
    <rect class="fil7" x="3442.46" y="54840.71" width="4111.63" height="388.76"/>
    <rect class="fil7" x="3440.72" y="61379.04" width="4111.63" height="531.81"/>
   </g>
   <g>
    <rect class="fil3" x="20643.65" y="53112.83" width="5853.45" height="19224.61" rx="238.29" ry="238.29"/>
    <rect class="fil4" x="21556.88" y="53840.23" width="4115.11" height="8995.45"/>
    <circle class="fil5" cx="23570.37" cy="68840.63" r="1455.71"/>
    <circle class="fil6" cx="23570.37" cy="68840.63" r="1065.74"/>
    <rect class="fil7" x="21560.36" y="56228.82" width="4111.63" height="388.76"/>
    <rect class="fil7" x="21560.36" y="54878.53" width="4111.63" height="388.76"/>
    <rect class="fil7" x="21558.62" y="61416.86" width="4111.63" height="531.81"/>
   </g>
   <g>
    <rect class="fil9" x="26679.41" y="53112.83" width="5853.45" height="19224.61" rx="238.29" ry="238.29"/>
    <rect class="fil4" x="27592.64" y="53840.23" width="4115.11" height="8995.45"/>
    <circle class="fil5" cx="29606.13" cy="68840.63" r="1455.71"/>
    <circle class="fil6" cx="29606.13" cy="68840.63" r="1065.74"/>
    <rect class="fil7" x="27596.12" y="56228.82" width="4111.63" height="388.76"/>
    <rect class="fil7" x="27596.12" y="54878.53" width="4111.63" height="388.76"/>
    <rect class="fil7" x="27594.38" y="61416.86" width="4111.63" height="531.81"/>
   </g>
   <g>
    <rect class="fil10" x="14597.26" y="53075" width="5853.45" height="19224.61" rx="238.29" ry="238.29"/>
    <rect class="fil4" x="15510.5" y="53802.41" width="4115.11" height="8995.45"/>
    <circle class="fil5" cx="17523.99" cy="68802.8" r="1455.71"/>
    <circle class="fil6" cx="17523.99" cy="68802.8" r="1065.74"/>
    <rect class="fil7" x="15513.98" y="56191" width="4111.63" height="388.76"/>
    <rect class="fil7" x="15513.98" y="54840.71" width="4111.63" height="388.76"/>
    <rect class="fil7" x="15512.24" y="61379.04" width="4111.63" height="531.81"/>
   </g>
   <rect class="fil11" x="32715.17" y="53112.83" width="5853.45" height="19224.61" rx="238.29" ry="238.29"/>
   <rect class="fil4" x="33628.4" y="53840.23" width="4115.11" height="8995.45"/>
   <circle class="fil5" cx="35641.89" cy="68840.63" r="1455.71"/>
   <circle class="fil6" cx="35641.89" cy="68840.63" r="1065.74"/>
   <rect class="fil7" x="33631.88" y="56228.82" width="4111.63" height="388.76"/>
   <rect class="fil7" x="33631.88" y="54878.53" width="4111.63" height="388.76"/>
   <rect class="fil7" x="33630.14" y="61416.86" width="4111.63" height="531.81"/>
   <g>
    <path class="fil12" d="M3438.54 63405.94l155.27 0c30.18,0 54.85,24.66 54.85,54.85l0 8766.95c0,30.18 -24.66,54.85 -54.85,54.85l-155.27 0c-30.18,0 -54.85,-24.66 -54.85,-54.85l0 -8766.95c0,-30.18 24.66,-54.85 54.85,-54.85z"/>
    <path class="fil12" d="M7311.16 63405.94l155.27 0c30.18,0 54.85,24.66 54.85,54.85l0 8766.95c0,30.18 -24.66,54.85 -54.85,54.85l-155.27 0c-30.18,0 -54.85,-24.66 -54.85,-54.85l0 -8766.95c0,-30.18 24.66,-54.85 54.85,-54.85z"/>
   </g>
   <g>
    <path class="fil12" d="M15510.06 63405.94l155.27 0c30.18,0 54.85,24.66 54.85,54.85l0 8766.95c0,30.18 -24.66,54.85 -54.85,54.85l-155.27 0c-30.18,0 -54.85,-24.66 -54.85,-54.85l0 -8766.95c0,-30.18 24.66,-54.85 54.85,-54.85z"/>
    <path class="fil12" d="M19382.68 63405.94l155.27 0c30.18,0 54.85,24.66 54.85,54.85l0 8766.95c0,30.18 -24.66,54.85 -54.85,54.85l-155.27 0c-30.18,0 -54.85,-24.66 -54.85,-54.85l0 -8766.95c0,-30.18 24.66,-54.85 54.85,-54.85z"/>
   </g>
   <g>
    <path class="fil12" d="M21556.45 63405.94l155.27 0c30.18,0 54.85,24.66 54.85,54.85l0 8766.95c0,30.18 -24.66,54.85 -54.85,54.85l-155.27 0c-30.18,0 -54.85,-24.66 -54.85,-54.85l0 -8766.95c0,-30.18 24.66,-54.85 54.85,-54.85z"/>
    <path class="fil12" d="M25429.07 63405.94l155.27 0c30.18,0 54.85,24.66 54.85,54.85l0 8766.95c0,30.18 -24.66,54.85 -54.85,54.85l-155.27 0c-30.18,0 -54.85,-24.66 -54.85,-54.85l0 -8766.95c0,-30.18 24.66,-54.85 54.85,-54.85z"/>
   </g>
   <g>
    <path class="fil12" d="M27592.21 63405.94l155.27 0c30.18,0 54.85,24.66 54.85,54.85l0 8766.95c0,30.18 -24.66,54.85 -54.85,54.85l-155.27 0c-30.18,0 -54.85,-24.66 -54.85,-54.85l0 -8766.95c0,-30.18 24.66,-54.85 54.85,-54.85z"/>
    <path class="fil12" d="M31464.83 63405.94l155.27 0c30.18,0 54.85,24.66 54.85,54.85l0 8766.95c0,30.18 -24.66,54.85 -54.85,54.85l-155.27 0c-30.18,0 -54.85,-24.66 -54.85,-54.85l0 -8766.95c0,-30.18 24.66,-54.85 54.85,-54.85z"/>
   </g>
   <g>
    <path class="fil12" d="M33627.97 63405.94l155.27 0c30.18,0 54.85,24.66 54.85,54.85l0 8766.95c0,30.18 -24.66,54.85 -54.85,54.85l-155.27 0c-30.18,0 -54.85,-24.66 -54.85,-54.85l0 -8766.95c0,-30.18 24.66,-54.85 54.85,-54.85z"/>
    <path class="fil12" d="M37500.58 63405.94l155.27 0c30.18,0 54.85,24.66 54.85,54.85l0 8766.95c0,30.18 -24.66,54.85 -54.85,54.85l-155.27 0c-30.18,0 -54.85,-24.66 -54.85,-54.85l0 -8766.95c0,-30.18 24.66,-54.85 54.85,-54.85z"/>
   </g>
   <g>
    <rect class="fil0 str0" x="42996.23" y="49459.1" width="43253.87" height="25173.41"/>
    <rect class="fil1 str1" x="44771.47" y="51294.08" width="39588.88" height="21723.6" rx="861.37" ry="812.14"/>
    <rect class="fil2 str0" x="44771.5" y="69380.93" width="39608.46" height="3617.11"/>
    <rect class="fil2 str0" x="45592.44" y="53025.18" width="36446.64" height="19003.22" rx="76.05" ry="434.2"/>
    <g>
     <rect class="fil3" x="45484.17" y="53095.2" width="5853.45" height="19224.61" rx="238.29" ry="238.29"/>
     <rect class="fil4" x="46397.4" y="53822.6" width="4115.11" height="8995.45"/>
     <circle class="fil5" cx="48410.89" cy="68823" r="1455.71"/>
     <circle class="fil6" cx="48410.89" cy="68823" r="1065.74"/>
     <rect class="fil7" x="46400.88" y="56211.2" width="4111.63" height="388.76"/>
     <rect class="fil7" x="46400.88" y="54860.9" width="4111.63" height="388.76"/>
     <rect class="fil7" x="46399.14" y="61399.24" width="4111.63" height="531.81"/>
    </g>
    <g>
     <rect class="fil3" x="63602.07" y="53133.03" width="5853.45" height="19224.61" rx="238.29" ry="238.29"/>
     <rect class="fil4" x="64515.31" y="53860.43" width="4115.11" height="8995.45"/>
     <circle class="fil5" cx="66528.8" cy="68860.82" r="1455.71"/>
     <circle class="fil6" cx="66528.8" cy="68860.82" r="1065.74"/>
     <rect class="fil7" x="64518.79" y="56249.02" width="4111.63" height="388.76"/>
     <rect class="fil7" x="64518.79" y="54898.73" width="4111.63" height="388.76"/>
     <rect class="fil7" x="64517.05" y="61437.06" width="4111.63" height="531.81"/>
    </g>
    <g>
     <rect class="fil8" x="51519.93" y="53095.2" width="5853.45" height="19224.61" rx="238.29" ry="238.29"/>
     <rect class="fil4" x="52433.16" y="53822.6" width="4115.11" height="8995.45"/>
     <circle class="fil5" cx="54446.65" cy="68823" r="1455.71"/>
     <circle class="fil6" cx="54446.65" cy="68823" r="1065.74"/>
     <rect class="fil7" x="52436.64" y="56211.2" width="4111.63" height="388.76"/>
     <rect class="fil7" x="52436.64" y="54860.9" width="4111.63" height="388.76"/>
     <rect class="fil7" x="52434.9" y="61399.24" width="4111.63" height="531.81"/>
    </g>
    <g>
     <rect class="fil9" x="69637.83" y="53133.03" width="5853.45" height="19224.61" rx="238.29" ry="238.29"/>
     <rect class="fil4" x="70551.07" y="53860.43" width="4115.11" height="8995.45"/>
     <circle class="fil5" cx="72564.56" cy="68860.82" r="1455.71"/>
     <circle class="fil6" cx="72564.56" cy="68860.82" r="1065.74"/>
     <rect class="fil7" x="70554.55" y="56249.02" width="4111.63" height="388.76"/>
     <rect class="fil7" x="70554.55" y="54898.73" width="4111.63" height="388.76"/>
     <rect class="fil7" x="70552.81" y="61437.06" width="4111.63" height="531.81"/>
    </g>
    <g>
     <rect class="fil10" x="57555.69" y="53095.2" width="5853.45" height="19224.61" rx="238.29" ry="238.29"/>
     <rect class="fil4" x="58468.92" y="53822.6" width="4115.11" height="8995.45"/>
     <circle class="fil5" cx="60482.41" cy="68823" r="1455.71"/>
     <circle class="fil6" cx="60482.41" cy="68823" r="1065.74"/>
     <rect class="fil7" x="58472.4" y="56211.2" width="4111.63" height="388.76"/>
     <rect class="fil7" x="58472.4" y="54860.9" width="4111.63" height="388.76"/>
     <rect class="fil7" x="58470.66" y="61399.24" width="4111.63" height="531.81"/>
    </g>
    <rect class="fil11" x="75673.59" y="53133.03" width="5853.45" height="19224.61" rx="238.29" ry="238.29"/>
    <rect class="fil4" x="76586.83" y="53860.43" width="4115.11" height="8995.45"/>
    <circle class="fil5" cx="78600.31" cy="68860.82" r="1455.71"/>
    <circle class="fil6" cx="78600.31" cy="68860.82" r="1065.74"/>
    <rect class="fil7" x="76590.31" y="56249.02" width="4111.63" height="388.76"/>
    <rect class="fil7" x="76590.31" y="54898.73" width="4111.63" height="388.76"/>
    <rect class="fil7" x="76588.57" y="61437.06" width="4111.63" height="531.81"/>
    <g>
     <path class="fil12" d="M46396.97 63426.13l155.27 0c30.18,0 54.85,24.66 54.85,54.85l0 8766.95c0,30.18 -24.66,54.85 -54.85,54.85l-155.27 0c-30.18,0 -54.85,-24.66 -54.85,-54.85l0 -8766.95c0,-30.18 24.66,-54.85 54.85,-54.85z"/>
     <path class="fil12" d="M50269.58 63426.13l155.27 0c30.18,0 54.85,24.66 54.85,54.85l0 8766.95c0,30.18 -24.66,54.85 -54.85,54.85l-155.27 0c-30.18,0 -54.85,-24.66 -54.85,-54.85l0 -8766.95c0,-30.18 24.66,-54.85 54.85,-54.85z"/>
    </g>
    <g>
     <path class="fil12" d="M52432.73 63426.13l155.27 0c30.18,0 54.85,24.66 54.85,54.85l0 8766.95c0,30.18 -24.66,54.85 -54.85,54.85l-155.27 0c-30.18,0 -54.85,-24.66 -54.85,-54.85l0 -8766.95c0,-30.18 24.66,-54.85 54.85,-54.85z"/>
     <path class="fil12" d="M56305.34 63426.13l155.27 0c30.18,0 54.85,24.66 54.85,54.85l0 8766.95c0,30.18 -24.66,54.85 -54.85,54.85l-155.27 0c-30.18,0 -54.85,-24.66 -54.85,-54.85l0 -8766.95c0,-30.18 24.66,-54.85 54.85,-54.85z"/>
    </g>
    <g>
     <path class="fil12" d="M58468.48 63426.13l155.27 0c30.18,0 54.85,24.66 54.85,54.85l0 8766.95c0,30.18 -24.66,54.85 -54.85,54.85l-155.27 0c-30.18,0 -54.85,-24.66 -54.85,-54.85l0 -8766.95c0,-30.18 24.66,-54.85 54.85,-54.85z"/>
     <path class="fil12" d="M62341.1 63426.13l155.27 0c30.18,0 54.85,24.66 54.85,54.85l0 8766.95c0,30.18 -24.66,54.85 -54.85,54.85l-155.27 0c-30.18,0 -54.85,-24.66 -54.85,-54.85l0 -8766.95c0,-30.18 24.66,-54.85 54.85,-54.85z"/>
    </g>
    <g>
     <path class="fil12" d="M64514.87 63426.13l155.27 0c30.18,0 54.85,24.66 54.85,54.85l0 8766.95c0,30.18 -24.66,54.85 -54.85,54.85l-155.27 0c-30.18,0 -54.85,-24.66 -54.85,-54.85l0 -8766.95c0,-30.18 24.66,-54.85 54.85,-54.85z"/>
     <path class="fil12" d="M68387.49 63426.13l155.27 0c30.18,0 54.85,24.66 54.85,54.85l0 8766.95c0,30.18 -24.66,54.85 -54.85,54.85l-155.27 0c-30.18,0 -54.85,-24.66 -54.85,-54.85l0 -8766.95c0,-30.18 24.66,-54.85 54.85,-54.85z"/>
    </g>
    <g>
     <path class="fil12" d="M70550.63 63426.13l155.27 0c30.18,0 54.85,24.66 54.85,54.85l0 8766.95c0,30.18 -24.66,54.85 -54.85,54.85l-155.27 0c-30.18,0 -54.85,-24.66 -54.85,-54.85l0 -8766.95c0,-30.18 24.66,-54.85 54.85,-54.85z"/>
     <path class="fil12" d="M74423.25 63426.13l155.27 0c30.18,0 54.85,24.66 54.85,54.85l0 8766.95c0,30.18 -24.66,54.85 -54.85,54.85l-155.27 0c-30.18,0 -54.85,-24.66 -54.85,-54.85l0 -8766.95c0,-30.18 24.66,-54.85 54.85,-54.85z"/>
    </g>
    <g>
     <path class="fil12" d="M76586.39 63426.13l155.27 0c30.18,0 54.85,24.66 54.85,54.85l0 8766.95c0,30.18 -24.66,54.85 -54.85,54.85l-155.27 0c-30.18,0 -54.85,-24.66 -54.85,-54.85l0 -8766.95c0,-30.18 24.66,-54.85 54.85,-54.85z"/>
     <path class="fil12" d="M80459.01 63426.13l155.27 0c30.18,0 54.85,24.66 54.85,54.85l0 8766.95c0,30.18 -24.66,54.85 -54.85,54.85l-155.27 0c-30.18,0 -54.85,-24.66 -54.85,-54.85l0 -8766.95c0,-30.18 24.66,-54.85 54.85,-54.85z"/>
    </g>
   </g>
  </g>
 </g>
</svg>
